Coordinates
version=1
nRows=9
nColumns=24
inDegrees=yes

Units are S.I. units (second, meters, Newtons, ...)
Angles are in degrees.

endheader
time	pelvis_tilt	pelvis_list	pelvis_rotation	pelvis_tx	pelvis_ty	pelvis_tz	hip_flexion_r	hip_adduction_r	hip_rotation_r	knee_angle_r	ankle_angle_r	subtalar_angle_r	mtp_angle_r	hip_flexion_l	hip_adduction_l	hip_rotation_l	knee_angle_l	ankle_angle_l	subtalar_angle_l	mtp_angle_l	lumbar_extension	lumbar_bending	lumbar_rotation
      1.59000000	     -9.02283841	      4.30037335	    357.45045707	     -0.62565101	      1.36430630	     -1.01583501	      3.41709071	     -1.81114879	      8.74707646	    -16.67740429	     12.15509264	     -6.53887750	      5.76165946	     26.61076111	      3.46139899	     -4.60294694	      2.54972812	     -6.98231151	      5.00100041	     31.67109530	     -8.16803723	      1.24355653	      6.42387413
      1.59500000	     -9.02221917	      4.34369589	    357.49777157	     -0.62026008	      1.36371915	     -1.01659791	      3.06684740	     -1.89299117	      8.83708877	    -16.67073796	     12.12420925	     -6.88866736	      5.64828367	     26.81327613	      3.55619227	     -4.22112433	      1.49574009	     -6.89228320	      3.92147782	     31.42744453	     -8.14249259	      1.14410667	      6.35790510
      1.60000000	     -9.02226142	      4.40259897	    357.50297617	     -0.61498254	      1.36314122	     -1.01735401	      2.75654269	     -2.00356166	      8.84645617	    -16.71525416	     12.16752300	     -6.96642437	      5.72875481	     27.01728478	      3.67185065	     -3.87598201	      0.45864688	     -7.10538561	      2.63230275	     30.97573675	     -8.14794693	      1.02201418	      6.31343429
      1.60500000	     -8.95142995	      4.52701028	    357.50161625	     -0.60959486	      1.36264364	     -1.01815952	      2.38961600	     -2.21122506	      8.75866279	    -16.80215895	     12.28325442	     -6.81868803	      5.87948371	     27.12914526	      3.88176822	     -3.73778890	     -0.46503184	     -7.81972710	      1.36880955	     30.23089307	     -8.23046986	      0.86336595	      6.22727924
      1.61000000	     -8.92006256	      4.69007101	    357.53769537	     -0.60403749	      1.36215703	     -1.01899288	      2.03239432	     -2.47539911	      8.58996044	    -16.84741503	     12.41521484	     -6.58787193	      6.05116538	     27.22952941	      4.16991137	     -3.70082306	     -1.13879728	     -9.00305985	     -0.12731801	     29.30850622	     -8.20437294	      0.64268582	      6.16283625
      1.61500000	     -8.87485129	      4.94710510	    357.57483449	     -0.59857731	      1.36176848	     -1.01961554	      1.70708013	     -2.81592248	      8.48617197	    -16.96544847	     12.52395028	     -6.44528838	      6.24072839	     27.31200843	      4.53580485	     -3.73913169	     -1.70834588	     -9.90090660	     -1.56928371	     28.64244537	     -8.22549735	      0.26459418	      6.06811018
      1.62000000	     -8.83887101	      5.19870872	    357.62821157	     -0.59317205	      1.36150677	     -1.02016590	      1.40214266	     -3.13406145	      8.39052858	    -17.10181545	     12.54055089	     -6.40317193	      6.41969101	     27.36369738	      4.87846809	     -3.86024276	     -2.15712896	    -10.19517232	     -2.19511889	     28.49675260	     -8.24830822	     -0.10823847	      6.00269250
      1.62500000	     -8.87814668	      5.35165142	    357.73559494	     -0.58791532	      1.36129719	     -1.02084096	      1.18269223	     -3.31049837	      8.41563843	    -17.24337780	     12.35123266	     -6.73281440	      6.48233819	     27.47075110	      5.14055125	     -3.63393339	     -2.55440266	    -10.24384862	     -2.31798224	     28.73940717	     -8.21289611	     -0.37368975	      5.83427074
      1.63000000	     -8.87242237	      5.51435638	    357.80943748	     -0.58258108	      1.36116174	     -1.02149067	      0.94206138	     -3.49859492	      8.39356148	    -17.42732388	     12.09470353	     -7.04053861	      6.81600104	     27.44044742	      5.41931059	     -3.15943716	     -2.84127488	    -10.52392933	     -2.61366005	     29.00195223	     -8.21110019	     -0.66600363	      5.75882936
